<svg width="9" height="18" viewBox="0 0 9 18" fill="none" xmlns="http://www.w3.org/2000/svg">
    <path d="M6.1282 5.24018H5.7682C5.0962 5.72018 4.1602 5.96018 2.3602 5.96018H0.200195V6.44018H3.2002C4.2802 6.44018 4.2562 6.56017 3.8482 7.52018L2.1442 11.7442C1.4962 13.2562 1.1842 14.1682 1.1842 15.0082C1.1842 16.8082 2.6002 17.3602 3.5602 17.3602C5.0722 17.3602 6.5122 16.1602 7.9762 13.4242L8.2402 12.9442L7.8082 12.7042L7.5442 13.1842C6.3922 15.3442 5.1202 16.7602 3.8002 16.7602C3.0802 16.7602 2.2882 16.4002 2.2882 15.2002C2.2882 14.6002 2.5282 14.0242 3.2482 12.2722L6.1282 5.24018ZM5.2402 1.88017C5.2402 2.55217 5.7682 3.08017 6.4402 3.08017C7.1122 3.08017 7.6402 2.55217 7.6402 1.88017C7.6402 1.20817 7.1122 0.680176 6.4402 0.680176C5.7682 0.680176 5.2402 1.20817 5.2402 1.88017Z" fill="black"/>
</svg>