<svg width="51" height="51" viewBox="0 0 51 51" fill="none" xmlns="http://www.w3.org/2000/svg">
    <path d="M51 25.5445C51 8.58899 42.4532 0 25.4774 0C8.50153 0 0 8.58899 0 25.5445C0 42.5 8.55591 51 25.4774 51C42.3988 51 51 42.4555 51 25.5445ZM40.5861 15.5403C40.3414 11.2414 39.1541 9.39004 35.7915 9.39004C30.6707 9.39004 28.9124 15.4602 28.1873 20.9607C27.4758 20.7883 26.745 20.7046 26.0121 20.7115C25.5408 20.7115 25.0333 20.7115 24.5438 20.7916C25.6768 14.4811 28.6949 7.65446 35.8731 7.65446C37.994 7.65446 38.9184 8.15288 40.0242 8.15288C40.3566 8.20408 40.6971 8.15691 41.0021 8.01743C41.3072 7.87794 41.5631 7.65244 41.7372 7.36963H42.707L41.5015 15.5403H40.5861ZM22.7493 15.5403C22.5136 11.09 21.1631 9.39004 17.9456 9.39004C11.855 9.39004 10.0151 18.2461 10.0151 26.301C10.0151 32.1665 10.7492 40.9958 17.2659 40.9958C19.6133 40.9958 19.9849 39.0199 19.9849 37.2398V35.6644C19.9849 30.5911 18.4622 29.434 16.7946 29.1314L16.9396 28.2414L23.1118 29.5853C22.9896 30.6013 22.9412 31.6244 22.9668 32.6471C22.9668 33.2435 22.9668 36.3052 22.9668 37.2398C22.9592 39.039 23.1753 40.8324 23.6103 42.5801H22.5136C22.4254 42.3065 22.2556 42.0652 22.0261 41.8874C21.7966 41.7097 21.5181 41.6037 21.2266 41.5833C19.8036 41.5833 19.2779 42.678 16.7583 42.678C7.93957 42.678 6.22658 32.9408 6.22658 26.3277C6.22658 16.9555 9.77945 7.68116 18.0906 7.68116C19.9758 7.68116 21.3172 8.17959 22.2417 8.17959C22.565 8.22747 22.8955 8.1783 23.1898 8.03853C23.4842 7.89876 23.7287 7.67492 23.8913 7.39633H24.861L23.6647 15.5403H22.7493ZM31.8127 39.2602C32.72 38.3563 33.4292 37.2795 33.8968 36.0963C34.3645 34.9131 34.5805 33.6484 34.5317 32.3801C34.6127 30.1183 34.0543 27.8787 32.9184 25.9094C31.9646 27.0415 31.4565 28.4723 31.4864 29.9414C31.4698 31.2599 31.9695 32.5344 32.8822 33.5016L32.4018 33.9021C31.6988 33.2651 31.1408 32.4894 30.7643 31.6258C30.3879 30.7623 30.2016 29.8303 30.2175 28.8911C30.2175 26.4435 31.7221 24.6189 33.0181 22.999C34.5227 21.1387 36.1088 19.1539 36.1088 16.6707C36.1088 14.1874 35.3203 13.4131 35.3203 13.4131L35.9184 13.0838C36.8502 14.4146 37.3321 15.9995 37.2961 17.6141C37.2961 19.9639 36.0634 22.367 33.6707 24.9482C34.7879 25.8354 35.6845 26.9611 36.2923 28.2396C36.9 29.5182 37.203 30.9159 37.1782 32.3267C37.2158 33.8164 36.9091 35.2951 36.2812 36.6517C35.6533 38.0082 34.7205 39.2074 33.5529 40.1592C32.9427 39.915 32.367 39.595 31.8399 39.2068L31.8127 39.2602ZM19.3958 38.2634C19.2689 39.1 18.7613 40.1146 18.1903 40.1146C17.8278 40.1146 17.3565 39.5539 17.1027 39.3047C16.2046 38.4333 15.4921 37.3951 15.0066 36.2505C14.5211 35.106 14.2724 33.8781 14.2749 32.6382C14.2749 25.7759 19.6405 21.3701 26.0574 21.3701C28.4592 21.3701 30.2629 22.3225 30.2629 24.1827C30.2074 24.7005 30.0093 25.1936 29.6899 25.6091C29.3706 26.0247 28.942 26.347 28.4502 26.5413V25.2152C28.617 25.1539 28.76 25.0428 28.8592 24.8975C28.9583 24.7522 29.0086 24.58 29.003 24.4052C29.003 23.266 27.6707 22.6874 26.1027 22.6874C24.3801 22.647 22.6842 23.1114 21.2314 24.0213C19.7786 24.9312 18.6347 26.2454 17.9456 27.7963L16.4683 27.5293L16.1511 29.4785C16.5822 29.558 17.0001 29.6958 17.3928 29.888C17.2733 30.7998 17.2249 31.7192 17.2477 32.6382C17.2426 34.6949 17.9777 36.6872 19.3233 38.2634H19.3958ZM28.7402 9.87959C27.5973 9.39366 26.3597 9.15971 25.1148 9.19423L25.3414 7.69895C26.8912 7.69895 29.1118 7.99268 30.0453 8.79372C29.3927 9.27435 28.713 9.87959 28.713 9.87959H28.7402ZM32.3384 11.1879C32.9426 12.1045 33.2579 13.1758 33.2447 14.2675C33.2532 15.2812 32.9843 16.2786 32.4661 17.1553C31.948 18.0321 31.1996 18.7562 30.2991 19.2518L29.9366 18.8958C31.1475 17.6953 31.8391 16.0817 31.8671 14.3921C31.9145 13.6748 31.7542 12.9589 31.4048 12.3272C31.6744 11.9235 31.9775 11.5424 32.3112 11.1879H32.3384ZM18.1088 23.0791C17.2833 22.1609 16.6526 21.0904 16.2535 19.9301C15.8544 18.7697 15.6949 17.5429 15.7843 16.3213C15.8738 15.0997 16.2104 13.9079 16.7745 12.8156C17.3386 11.7233 18.1188 10.7524 19.0695 9.95969C19.7768 10.1211 20.4124 10.5018 20.8822 11.0456C19.4157 12.6701 18.6233 14.7759 18.6616 16.9466C18.6241 18.7013 19.0721 20.4331 19.9577 21.9576C19.3286 22.2912 18.7231 22.6659 18.145 23.0791H18.1088ZM23.4562 25.2152L23.4018 26.4435C22.4746 26.1951 21.6324 25.7063 20.9638 25.0283C21.3161 24.7448 21.6991 24.5 22.1058 24.2984L23.4562 25.2152ZM28.3867 40.9869C28.8303 41.4 29.3233 41.7587 29.855 42.055C28.5838 42.4973 27.2427 42.7143 25.8943 42.6958C25.3701 42.7055 24.8459 42.6757 24.3263 42.6068C24.1474 42.1054 24.0258 41.5859 23.9638 41.0581C24.5952 41.2136 25.2433 41.2943 25.8943 41.2984C26.7353 41.301 27.5731 41.1962 28.3867 40.9869ZM42.5347 42.5089C42.3773 42.1818 42.1321 41.903 41.8255 41.7023C41.519 41.5016 41.1626 41.3866 40.7946 41.3696C39.3988 41.3696 37.6042 42.6068 34.9305 42.6068C25.6677 42.6068 24.0091 33.11 24.0091 26.2565C24.0091 25.4466 24.0997 24.3874 24.1813 23.533C24.7514 23.4222 25.3312 23.3656 25.9124 23.3639C26.5912 23.3408 27.2657 23.4782 27.8792 23.7644C27.7795 24.9927 27.7795 25.4466 27.7795 26.2299C27.7795 31.9707 28.5771 40.9869 34.9305 40.9869C38.9366 40.9869 39.861 39.7052 39.861 36.7147V32.7361C39.861 28.0278 38.6194 26.7105 37.142 26.2299L37.287 25.3398L43.2236 26.5948C42.9768 28.4898 42.8557 30.3985 42.861 32.3089V35.5754C42.8822 37.8937 43.0943 40.2065 43.4955 42.4911L42.5347 42.5089Z" fill="#FFE195"/>
</svg>